<?xml version="1.0" encoding="UTF-8"?>
<svg xmlns="http://www.w3.org/2000/svg" xmlns:xlink="http://www.w3.org/1999/xlink" width="400" zoomAndPan="magnify" viewBox="0 0 300 112.499997" height="150" preserveAspectRatio="xMidYMid meet" version="1.0"><defs><g/><clipPath id="ce41e9123d"><path d="M 0.664062 0 L 299.335938 0 L 299.335938 112.003906 L 0.664062 112.003906 Z M 0.664062 0 " clip-rule="nonzero"/></clipPath><clipPath id="7f058ac1ec"><rect x="0" width="279" y="0" height="80"/></clipPath></defs><g clip-path="url(#ce41e9123d)"><path fill="#E8331A" d="M 0.664062 0 L 299.335938 0 L 299.335938 112.003906 L 0.664062 112.003906 Z M 0.664062 0 " fill-opacity="1" fill-rule="nonzero"/><path fill="#34160F" d="M 0.664062 0 L 299.335938 0 L 299.335938 112.003906 L 0.664062 112.003906 Z M 0.664062 0 " fill-opacity="1" fill-rule="nonzero"/></g><g transform="matrix(1, 0, 0, 1, 12, 28)"><g clip-path="url(#7f058ac1ec)"><g fill="#ffffff" fill-opacity="1"><g transform="translate(0.862231, 57.054581)"><g><path d="M 18.363281 1.238281 C 27.84375 1.238281 33.605469 -3.394531 33.605469 -10.824219 C 33.605469 -17.234375 29.136719 -20.410156 23.15625 -21.867188 L 15.511719 -23.75 C 12.546875 -24.503906 11.039062 -25.957031 11.039062 -28.058594 C 11.039062 -30.644531 13.300781 -32.691406 17.394531 -32.691406 C 21.597656 -32.691406 24.71875 -30.484375 25.203125 -26.605469 L 32.960938 -26.605469 C 32.476562 -34.144531 26.605469 -39.207031 17.339844 -39.207031 C 7.484375 -39.207031 3.015625 -33.335938 3.015625 -27.199219 C 3.015625 -21.8125 6.460938 -18.042969 12.441406 -16.535156 L 19.496094 -14.757812 C 23.15625 -13.839844 25.367188 -12.816406 25.367188 -10.070312 C 25.367188 -7.054688 22.671875 -5.277344 18.3125 -5.277344 C 13.25 -5.277344 10.125 -7.648438 9.910156 -11.902344 L 2.101562 -11.902344 C 2.316406 -3.609375 8.617188 1.238281 18.363281 1.238281 Z M 18.363281 1.238281 "/></g></g></g><g fill="#ffffff" fill-opacity="1"><g transform="translate(33.861381, 57.054581)"><g><path d="M 19.710938 1.238281 C 29.027344 1.238281 35.277344 -3.769531 35.921875 -12.546875 L 28.382812 -12.546875 C 27.789062 -8.886719 25.3125 -5.65625 20.195312 -5.65625 C 13.519531 -5.65625 9.855469 -11.09375 9.855469 -19.171875 C 9.855469 -26.980469 13.519531 -32.3125 20.195312 -32.3125 C 24.933594 -32.3125 27.734375 -29.675781 28.382812 -25.636719 L 35.976562 -25.636719 C 35.277344 -34.035156 29.191406 -39.207031 19.820312 -39.207031 C 9.585938 -39.207031 1.886719 -31.558594 1.886719 -19.171875 C 1.886719 -6.730469 9.480469 1.238281 19.710938 1.238281 Z M 19.710938 1.238281 "/></g></g></g><g fill="#ffffff" fill-opacity="1"><g transform="translate(68.475593, 57.054581)"><g><path d="M 26.445312 -23.535156 L 11.472656 -23.535156 L 11.472656 -38.34375 L 3.5 -38.34375 L 3.5 0 L 11.472656 0 L 11.472656 -16.425781 L 26.445312 -16.425781 L 26.445312 0 L 34.414062 0 L 34.414062 -38.34375 L 26.445312 -38.34375 Z M 26.445312 -23.535156 "/></g></g></g><g fill="#ffffff" fill-opacity="1"><g transform="translate(103.682014, 57.054581)"><g><path d="M 37.375 0 L 24.128906 -38.34375 L 14.917969 -38.34375 L 1.347656 0 L 9.800781 0 L 12.386719 -7.972656 L 26.28125 -7.972656 L 28.867188 0 Z M 16.101562 -19.28125 L 19.386719 -30.320312 L 22.621094 -19.28125 L 24.179688 -14.542969 L 14.542969 -14.542969 Z M 16.101562 -19.28125 "/></g></g></g><g fill="#ffffff" fill-opacity="1"><g transform="translate(139.69599, 57.054581)"><g><path d="M 26.496094 -21.542969 C 26.496094 -18.851562 26.550781 -16.101562 26.605469 -13.410156 C 25.367188 -15.5625 24.074219 -17.664062 22.726562 -19.820312 L 11.308594 -38.34375 L 3.5 -38.34375 L 3.5 0 L 11.472656 0 L 11.472656 -16.804688 C 11.472656 -19.441406 11.472656 -22.1875 11.417969 -24.882812 C 12.765625 -22.621094 14.109375 -20.359375 15.511719 -18.09375 L 26.660156 0 L 34.46875 0 L 34.46875 -38.34375 L 26.496094 -38.34375 Z M 26.496094 -21.542969 "/></g></g></g><g fill="#ffffff" fill-opacity="1"><g transform="translate(174.956235, 57.054581)"><g><path d="M 15.996094 -38.34375 L 3.5 -38.34375 L 3.5 0 L 17.074219 0 C 30.105469 0 35.8125 -7.972656 35.8125 -19.441406 C 35.8125 -30.914062 30.375 -38.34375 15.996094 -38.34375 Z M 11.472656 -6.730469 L 11.472656 -31.882812 L 15.242188 -31.882812 C 25.042969 -31.882812 27.84375 -27.464844 27.84375 -19.171875 C 27.84375 -10.824219 24.773438 -6.730469 16.320312 -6.730469 Z M 11.472656 -6.730469 "/></g></g></g><g fill="#ffffff" fill-opacity="1"><g transform="translate(209.785791, 57.054581)"><g><path d="M 11.472656 -16.371094 L 29.40625 -16.371094 L 29.40625 -23.480469 L 11.472656 -23.480469 L 11.472656 -31.238281 L 31.398438 -31.238281 L 31.398438 -38.34375 L 3.5 -38.34375 L 3.5 0 L 31.9375 0 L 31.9375 -7.109375 L 11.472656 -7.109375 Z M 11.472656 -16.371094 "/></g></g></g><g fill="#ffffff" fill-opacity="1"><g transform="translate(241.169833, 57.054581)"><g><path d="M 26.175781 -18.417969 C 31.074219 -19.710938 33.5 -22.890625 33.5 -27.789062 C 33.5 -33.230469 30.535156 -38.34375 21.382812 -38.34375 L 3.5 -38.34375 L 3.5 0 L 11.472656 0 L 11.472656 -14.863281 L 18.527344 -14.863281 C 22.671875 -14.863281 24.019531 -13.140625 24.34375 -9.855469 L 25.257812 0 L 33.445312 0 L 31.882812 -12.171875 C 31.558594 -14.703125 30.644531 -17.503906 26.175781 -18.417969 Z M 11.472656 -31.667969 L 20.195312 -31.667969 C 24.128906 -31.667969 25.6875 -29.511719 25.6875 -26.710938 C 25.6875 -23.75 23.914062 -21.328125 19.117188 -21.328125 L 11.472656 -21.328125 Z M 11.472656 -31.667969 "/></g></g></g></g></g></svg>
